<svg xmlns="http://www.w3.org/2000/svg" viewBox="0 0 1200 750" role="img" aria-label="边境指令游戏封面">
  <defs><linearGradient id="bg" x1="0" y1="0" x2="1" y2="1"><stop stop-color="#194639"/><stop offset="1" stop-color="#0f1113"/></linearGradient></defs>
  <rect width="1200" height="750" fill="url(#bg)"/>
  <g stroke="#cce8ca" stroke-width="2" opacity=".22">
    <path d="M550 120H1135"/><path d="M550 212H1135"/><path d="M550 304H1135"/><path d="M550 396H1135"/><path d="M550 488H1135"/><path d="M550 580H1135"/>
    <path d="M550 110V640"/><path d="M642 110V640"/><path d="M734 110V640"/><path d="M826 110V640"/><path d="M918 110V640"/><path d="M1010 110V640"/><path d="M1102 110V640"/>
  </g>
  <path d="M708 278 824 352 914 462" fill="none" stroke="#efeed0" stroke-width="6" opacity=".7"/>
  <g>
    <circle cx="708" cy="278" r="48" fill="#d5483a"/><path d="M708 208V348M638 278H778" stroke="#e6f0e6" stroke-width="4" opacity=".55"/>
    <circle cx="824" cy="352" r="48" fill="#4b9d78"/><path d="M824 282V422M754 352H894" stroke="#e6f0e6" stroke-width="4" opacity=".55"/>
    <circle cx="914" cy="462" r="48" fill="#d99a2b"/><path d="M914 392V532M844 462H984" stroke="#e6f0e6" stroke-width="4" opacity=".55"/>
  </g>
  <rect x="58" y="54" width="120" height="40" rx="20" fill="#ffffffe0"/>
  <text x="78" y="82" font-family="Microsoft YaHei,Arial" font-size="23" font-weight="700" fill="#15171a">策略</text>
  <rect x="58" y="506" width="652" height="164" rx="22" fill="#080b0fba"/>
  <text x="88" y="598" font-family="Microsoft YaHei,Arial" font-size="76" font-weight="800" fill="#fff">边境指令</text>
  <text x="92" y="646" font-family="Microsoft YaHei,Arial" font-size="28" fill="#e3e9e5">回合制战术</text>
</svg>