<svg xmlns="http://www.w3.org/2000/svg" viewBox="0 0 1200 750" role="img" aria-label="赤刃回响游戏封面">
  <defs><linearGradient id="bg" x1="0" y1="0" x2="1" y2="1"><stop stop-color="#621418"/><stop offset="1" stop-color="#121418"/></linearGradient></defs>
  <rect width="1200" height="750" fill="url(#bg)"/>
  <g stroke="#ff7252" stroke-width="24" opacity=".18">
    <path d="M680 0 300 750"/><path d="M790 0 410 750"/><path d="M900 0 520 750"/><path d="M1010 0 630 750"/>
  </g>
  <ellipse cx="515" cy="565" rx="155" ry="145" fill="#0e0f12" opacity=".82"/>
  <path d="M770 72 845 95 500 602 448 580Z" fill="#f5f5eb"/>
  <path d="M828 88 890 126 548 632 506 604Z" fill="#b93228"/>
  <path d="M420 660A180 180 0 0 1 665 390" fill="none" stroke="#ffd77d" stroke-width="9"/>
  <rect x="58" y="54" width="120" height="40" rx="20" fill="#ffffffe0"/>
  <text x="78" y="82" font-family="Microsoft YaHei,Arial" font-size="23" font-weight="700" fill="#15171a">动作</text>
  <rect x="58" y="506" width="652" height="164" rx="22" fill="#080b0fba"/>
  <text x="88" y="598" font-family="Microsoft YaHei,Arial" font-size="76" font-weight="800" fill="#fff">赤刃回响</text>
  <text x="92" y="646" font-family="Microsoft YaHei,Arial" font-size="28" fill="#e3e9e5">高速格挡动作</text>
</svg>